<svg width="14" height="18" viewBox="0 0 14 18" fill="none" xmlns="http://www.w3.org/2000/svg">
<path fill-rule="evenodd" clip-rule="evenodd" d="M8.30002 0.045986C8.50302 0.109828 8.68037 0.236767 8.80626 0.408342C8.93216 0.579916 9.00003 0.787179 9.00002 0.999986V5.99999H13C13.1829 5.9999 13.3624 6.05 13.5188 6.14481C13.6752 6.23962 13.8027 6.37553 13.8872 6.53773C13.9718 6.69993 14.0102 6.88222 13.9984 7.06475C13.9865 7.24729 13.9248 7.42307 13.82 7.57299L6.82002 17.573C6.69819 17.7475 6.52385 17.8786 6.32236 17.9472C6.12087 18.0159 5.90274 18.0184 5.69971 17.9545C5.49669 17.8905 5.31935 17.7635 5.19351 17.5918C5.06767 17.4202 4.99988 17.2128 5.00002 17V12H1.00002C0.817099 12.0001 0.637663 11.95 0.481235 11.8552C0.324808 11.7603 0.197383 11.6244 0.112827 11.4622C0.028272 11.3 -0.0101743 11.1178 0.00167259 10.9352C0.0135194 10.7527 0.0752056 10.5769 0.180018 10.427L7.18002 0.426986C7.30203 0.252773 7.47641 0.121998 7.67782 0.0536622C7.87923 -0.0146742 8.09719 -0.0170128 8.30002 0.0469861V0.045986Z" fill="black"/>
</svg>
