<svg width="21" height="20" viewBox="0 0 21 20" fill="none" xmlns="http://www.w3.org/2000/svg">
<path d="M10.5 6H10.5104M11.5417 14H10.5V10H9.45833L11.5417 14ZM19.875 10C19.875 11.1819 19.6325 12.3522 19.1614 13.4442C18.6902 14.5361 17.9997 15.5282 17.1291 16.364C16.2586 17.1997 15.2251 17.8626 14.0877 18.3149C12.9502 18.7672 11.7311 19 10.5 19C9.26886 19 8.04977 18.7672 6.91234 18.3149C5.77492 17.8626 4.74142 17.1997 3.87087 16.364C3.00032 15.5282 2.30977 14.5361 1.83863 13.4442C1.36749 12.3522 1.125 11.1819 1.125 10C1.125 7.61305 2.11272 5.32387 3.87087 3.63604C5.62903 1.94821 8.0136 1 10.5 1C12.9864 1 15.371 1.94821 17.1291 3.63604C18.8873 5.32387 19.875 7.61305 19.875 10Z" stroke="#FEFEFE" stroke-width="2" stroke-linecap="round" stroke-linejoin="round"/>
</svg>
